HIERARCHY
ROOT Hips
{
	OFFSET -0.001795 -0.223333 0.028219
	CHANNELS 6 Xposition Yposition Zposition Zrotation Yrotation Xrotation 
	JOINT LeftUpLeg
	{
		OFFSET 0.069520 -0.091406 -0.006815
		CHANNELS 3 Zrotation Yrotation Xrotation
		JOINT LeftLeg
		{
			OFFSET 0.034277 -0.375199 -0.004496
			CHANNELS 3 Zrotation Yrotation Xrotation
			JOINT LeftFoot
			{
				OFFSET -0.013596 -0.397961 -0.043693
				CHANNELS 3 Zrotation Yrotation Xrotation
				JOINT LeftToe
				{
					OFFSET 0.026358 -0.055791 0.119288
					CHANNELS 3 Zrotation Yrotation Xrotation
					End Site
					{
						OFFSET 0.000000 0.000000 0.000000
					}
				}
			}
		}
	}
	JOINT RightUpLeg
	{
		OFFSET -0.067670 -0.090522 -0.004320
		CHANNELS 3 Zrotation Yrotation Xrotation
		JOINT RightLeg
		{
			OFFSET -0.038290 -0.382569 -0.008850
			CHANNELS 3 Zrotation Yrotation Xrotation
			JOINT RightFoot
			{
				OFFSET 0.015774 -0.398415 -0.042312
				CHANNELS 3 Zrotation Yrotation Xrotation
				JOINT RightToe
				{
					OFFSET -0.025372 -0.048144 0.123348
					CHANNELS 3 Zrotation Yrotation Xrotation
					End Site
					{
						OFFSET 0.000000 0.000000 0.000000
					}
				}
			}
		}
	}
	JOINT Spine
	{
		OFFSET -0.002533 0.108963 -0.026696
		CHANNELS 3 Zrotation Yrotation Xrotation
		JOINT Spine1
		{
			OFFSET 0.005487 0.135180 0.001092
			CHANNELS 3 Zrotation Yrotation Xrotation
			JOINT Spine2
			{
				OFFSET 0.001457 0.052922 0.025425
				CHANNELS 3 Zrotation Yrotation Xrotation
				JOINT Neck
				{
					OFFSET -0.002778 0.213870 -0.042857
					CHANNELS 3 Zrotation Yrotation Xrotation
					JOINT Head
					{
						OFFSET 0.005152 0.064970 0.051349
						CHANNELS 3 Zrotation Yrotation Xrotation
						End Site
						{
							OFFSET 0.000000 0.000000 0.000000
						}
					}
				}
				JOINT LeftShoulder
				{
					OFFSET 0.078845 0.121749 -0.034090
					CHANNELS 3 Zrotation Yrotation Xrotation
					JOINT LeftArm
					{
						OFFSET 0.090977 0.030469 -0.008868
						CHANNELS 3 Zrotation Yrotation Xrotation
						JOINT LeftForeArm
						{
							OFFSET 0.259612 -0.012772 -0.027456
							CHANNELS 3 Zrotation Yrotation Xrotation
							JOINT LeftHand
							{
								OFFSET 0.249234 0.008986 -0.001171
								CHANNELS 3 Zrotation Yrotation Xrotation
								End Site
								{
									OFFSET 0.000000 0.000000 0.000000
								}
							}
						}
					}
				}
				JOINT RightShoulder
				{
					OFFSET -0.081759 0.118833 -0.038615
					CHANNELS 3 Zrotation Yrotation Xrotation
					JOINT RightArm
					{
						OFFSET -0.096012 0.032551 -0.009143
						CHANNELS 3 Zrotation Yrotation Xrotation
						JOINT RightForeArm
						{
							OFFSET -0.253742 -0.013329 -0.021401
							CHANNELS 3 Zrotation Yrotation Xrotation
							JOINT RightHand
							{
								OFFSET -0.255298 0.007772 -0.005559
								CHANNELS 3 Zrotation Yrotation Xrotation
								End Site
								{
									OFFSET 0.000000 0.000000 0.000000
								}
							}
						}
					}
				}
			}
		}
	}
}
MOTION
Frames: 16
Frame Time: 0.050000
0.000000 0.946148 0.000000 0.909598 6.361813 5.221504 7.118921 -1.045070 -20.337050 -5.666258 0.567588 20.205900 5.591781 13.396675 7.291110 0.000000 0.000000 0.000000 -1.355403 1.028188 -11.765069 2.049918 -0.113005 12.551140 -4.462001 -11.443065 0.808622 0.000000 0.000000 0.000000 3.690919 -0.683788 7.546018 1.160091 -0.456606 -1.709232 0.894869 -2.245636 8.772286 0.792548 1.067932 -21.144384 0.000000 0.000000 0.000000 -10.782886 -19.887494 8.060763 -68.245562 -31.265610 10.935479 -25.226565 -47.322869 13.461431 0.000000 0.000000 0.000000 9.245824 17.801493 7.320637 56.622674 25.487131 6.468896 -1.869970 21.714431 0.455254 0.000000 0.000000 0.000000 
0.002374 0.945215 0.006049 0.614173 8.107757 6.504106 7.193087 -1.280672 -22.983278 -4.264441 0.204305 15.894684 4.408715 11.507098 7.211065 0.000000 0.000000 0.000000 -1.707732 1.002990 -11.950124 2.927452 -0.365208 12.240899 -4.715323 -12.018452 0.045816 0.000000 0.000000 0.000000 4.041171 -0.731372 7.333090 1.245247 -0.391494 -3.274377 1.680651 -2.797134 10.140524 -0.370586 1.998076 -25.906793 0.000000 0.000000 0.000000 -13.483398 -18.371416 7.618054 -64.729632 -30.360682 9.353068 -31.107683 -52.001732 18.135020 0.000000 0.000000 0.000000 7.501703 17.946848 7.268249 57.050691 27.020804 7.238791 -0.688529 22.324048 0.695691 0.000000 0.000000 0.000000 
0.006689 0.944435 0.014172 1.088330 8.426313 5.469380 6.589508 -1.439178 -23.878209 -2.457758 -0.039008 10.838785 3.464096 10.619946 9.705526 0.000000 0.000000 0.000000 -2.012758 0.796522 -9.493372 3.158634 -0.424365 11.710705 -5.057938 -12.928349 0.570694 0.000000 0.000000 0.000000 3.887816 -0.799985 8.499749 0.201344 0.067409 -3.269908 2.168828 -1.940283 10.316535 0.839084 1.316806 -23.094493 0.000000 0.000000 0.000000 -13.665542 -17.894075 7.167874 -65.836009 -29.834613 9.157567 -25.706684 -49.147701 14.176628 0.000000 0.000000 0.000000 9.158979 17.564342 7.443627 54.025634 29.164536 7.668342 -1.747389 19.697209 0.451326 0.000000 0.000000 0.000000 
0.013390 0.942647 0.024663 1.207100 9.611204 5.463263 5.275133 -1.798077 -24.849478 -1.440821 -0.095283 7.132846 1.694036 8.177272 10.823441 0.000000 0.000000 0.000000 -2.749801 0.680634 -8.637233 3.686394 -0.577780 11.406701 -5.761788 -14.695678 0.920277 0.000000 0.000000 0.000000 2.951943 -0.660716 7.948614 0.196808 -0.030999 -1.338064 2.595559 -1.334033 9.446903 1.647448 1.074778 -23.670245 0.000000 0.000000 0.000000 -12.404077 -18.733888 7.219127 -65.716908 -30.224537 9.369790 -22.707065 -48.906324 12.409319 0.000000 0.000000 0.000000 7.408532 17.682698 7.394979 53.190816 30.693657 8.435313 -0.703810 20.844230 0.654813 0.000000 0.000000 0.000000 
0.022903 0.940204 0.037680 0.600015 10.549372 5.116892 4.743216 -1.949319 -24.977091 -0.773956 -0.131781 5.474264 0.434160 6.500375 11.582283 0.000000 0.000000 0.000000 -2.907136 0.563390 -7.110824 4.192912 -0.714139 10.939808 -5.947327 -15.202637 0.485121 0.000000 0.000000 0.000000 3.325141 -0.724097 8.221487 0.186094 0.013434 -1.933174 2.852964 -1.402840 10.324911 2.022689 0.929938 -23.757279 0.000000 0.000000 0.000000 -11.248624 -18.612440 7.008394 -65.836723 -28.636827 8.212812 -17.612832 -48.063248 9.793511 0.000000 0.000000 0.000000 7.123804 17.840083 7.493203 53.389776 31.912477 9.035261 -2.411302 21.507677 0.410631 0.000000 0.000000 0.000000 
0.035126 0.937829 0.053400 0.473892 10.557186 5.827809 4.166709 -2.099353 -25.449646 -0.934291 -0.119490 5.701659 0.575689 6.478336 10.900174 0.000000 0.000000 0.000000 -3.654652 0.541966 -7.284144 4.070605 -0.686126 10.990341 -5.961278 -15.285757 -0.873117 0.000000 0.000000 0.000000 3.189387 -0.646357 7.349969 -0.120355 0.149707 -1.958850 3.332204 -0.721861 10.109404 1.586164 1.220839 -23.459447 0.000000 0.000000 0.000000 -11.686987 -18.180929 6.718227 -63.817047 -26.182260 6.361165 -14.569959 -47.012022 8.073163 0.000000 0.000000 0.000000 7.168000 18.641184 7.944403 52.836257 32.494515 9.243923 -2.842505 22.841230 0.379029 0.000000 0.000000 0.000000 
0.049818 0.935497 0.071096 0.178633 9.974119 5.887512 3.490655 -2.194010 -25.518391 -0.763043 -0.200382 7.112615 0.548797 6.709800 11.806594 0.000000 0.000000 0.000000 -4.094553 0.470874 -6.293725 3.931779 -0.645588 11.337457 -6.138843 -15.751596 -1.297388 0.000000 0.000000 0.000000 2.995866 -0.557466 6.484090 -0.522663 0.335285 -2.111818 3.682267 -0.392106 10.167764 1.933643 1.005722 -23.116182 0.000000 0.000000 0.000000 -11.435891 -17.371832 6.330240 -62.840071 -24.397073 5.161421 -11.533218 -46.088707 6.575679 0.000000 0.000000 0.000000 7.373526 19.352685 8.292283 52.327325 32.970454 9.335493 -2.361144 24.489816 0.512034 0.000000 0.000000 0.000000 
0.067083 0.934605 0.090114 0.138931 9.364723 5.920611 2.716043 -2.337541 -25.838973 -0.981579 -0.286264 9.910865 0.547579 6.465174 11.366559 0.000000 0.000000 0.000000 -4.982008 0.410435 -5.737311 3.628565 -0.573572 12.130910 -6.321097 -16.196687 -1.409680 0.000000 0.000000 0.000000 2.350947 -0.444301 5.738293 -0.825961 0.452663 -1.781871 3.762443 0.055220 9.539973 1.876117 0.886014 -21.185953 0.000000 0.000000 0.000000 -10.933947 -16.134817 5.709402 -61.562277 -22.683975 4.090759 -10.973556 -45.705963 6.204552 0.000000 0.000000 0.000000 7.610864 19.518951 8.413763 52.872128 33.013798 9.561670 -0.915404 26.783899 0.903027 0.000000 0.000000 0.000000 
0.086310 0.934417 0.109559 -0.295538 8.361304 5.717037 1.684459 -2.390149 -25.102696 -0.665389 -0.404304 11.420510 0.517491 5.982777 10.510135 0.000000 0.000000 0.000000 -5.527992 0.381649 -5.349768 3.464129 -0.528725 13.514974 -6.530489 -16.622422 -0.075912 0.000000 0.000000 0.000000 1.867389 -0.376162 5.343078 -1.234667 0.661121 -2.478096 4.225880 0.877672 9.993276 1.991277 0.855258 -21.131736 0.000000 0.000000 0.000000 -9.962946 -15.143248 5.196850 -60.306201 -22.572934 3.814279 -13.224976 -45.958672 7.149487 0.000000 0.000000 0.000000 7.605939 19.326071 8.370033 52.959895 32.789465 9.452059 1.639283 29.799315 1.703440 0.000000 0.000000 0.000000 
0.106740 0.935550 0.128420 -0.401364 8.043427 5.474623 0.313258 -2.487792 -24.001447 -0.787520 -0.427976 12.451180 0.638953 5.471117 8.734763 0.000000 0.000000 0.000000 -6.654492 0.353398 -5.657111 3.731562 -0.658526 16.640079 -6.734702 -17.043730 1.203336 0.000000 0.000000 0.000000 1.271611 -0.326741 5.306906 -1.297820 0.693423 -2.601772 4.255417 1.180284 9.504924 2.172709 0.675819 -20.093570 0.000000 0.000000 0.000000 -8.799072 -14.570721 4.902453 -59.712261 -22.178672 3.554606 -17.148312 -48.685313 9.343168 0.000000 0.000000 0.000000 7.268841 19.376294 8.338434 53.062420 31.875714 9.096008 5.247796 34.039930 3.091164 0.000000 0.000000 0.000000 
0.126790 0.937834 0.145724 -0.853352 7.762250 5.077741 -0.312797 -2.400274 -22.546774 -1.056108 -0.386059 12.796234 0.206706 4.392315 8.030750 0.000000 0.000000 0.000000 -7.828616 0.360521 -7.931790 4.724558 -1.162003 22.676156 -6.331223 -16.013912 2.842546 0.000000 0.000000 0.000000 1.035250 -0.317129 5.474844 -1.466696 0.760041 -2.359653 4.173682 1.669650 9.114829 2.877706 0.289895 -19.827478 0.000000 0.000000 0.000000 -7.198142 -14.530908 4.823327 -58.573707 -22.821901 3.756965 -25.083201 -51.409180 13.721971 0.000000 0.000000 0.000000 7.412147 19.148131 8.300618 51.637643 30.595639 8.159347 11.113363 39.027639 5.742780 0.000000 0.000000 0.000000 
0.144891 0.940785 0.160998 -1.587099 7.731732 4.249239 -0.578532 -2.271729 -21.213097 -1.141381 -0.420294 13.863091 0.700358 4.696184 6.662550 0.000000 0.000000 0.000000 -8.914163 0.298658 -9.711288 5.366712 -1.693764 28.461126 -5.915301 -15.096535 5.268289 0.000000 0.000000 0.000000 0.409821 -0.309291 6.203452 -0.856055 0.512989 -2.868866 4.357743 1.135130 9.709121 1.898941 0.808173 -20.050866 0.000000 0.000000 0.000000 -6.075356 -13.696238 4.553002 -56.579609 -22.754725 3.473391 -35.944116 -55.318610 21.037839 0.000000 0.000000 0.000000 6.531584 18.752231 7.888884 50.780817 29.121552 7.230559 18.989904 44.569676 9.991436 0.000000 0.000000 0.000000 
0.160178 0.944310 0.174900 -2.584425 7.595440 3.697904 -0.740708 -2.117361 -19.832161 -0.842235 -0.510673 14.377250 0.706384 4.547264 6.312658 0.000000 0.000000 0.000000 -9.034512 0.305193 -12.913138 5.800618 -2.233616 34.138863 -5.667747 -14.612392 6.659018 0.000000 0.000000 0.000000 -0.171642 -0.276464 6.412299 -0.183323 0.207863 -2.676610 4.579320 0.723338 9.281165 1.856183 0.758027 -19.874549 0.000000 0.000000 0.000000 -4.517941 -13.556535 4.538033 -54.708364 -21.490458 2.739319 -50.328180 -58.863954 31.677681 0.000000 0.000000 0.000000 5.272115 17.871103 7.235407 50.308162 26.216199 5.866402 32.579143 49.907618 18.059889 0.000000 0.000000 0.000000 
0.172750 0.947329 0.187994 -3.503975 7.751282 3.386601 -0.590471 -1.937577 -18.534498 -0.577293 -0.594588 14.722072 0.798001 4.615935 6.058040 0.000000 0.000000 0.000000 -9.204779 0.277093 -15.204701 6.409339 -2.721544 36.458775 -5.307927 -13.894701 7.495653 0.000000 0.000000 0.000000 -0.829948 -0.231837 6.457939 0.780286 -0.193517 -3.148195 4.742895 -0.008173 9.992952 1.494076 0.959451 -20.689775 0.000000 0.000000 0.000000 -3.182963 -12.293274 4.114408 -53.105138 -20.174124 1.945566 -63.759538 -59.959040 41.855295 0.000000 0.000000 0.000000 3.699569 16.978225 6.577367 49.329630 22.686104 4.123842 48.637389 51.557087 27.457993 0.000000 0.000000 0.000000 
0.182897 0.950219 0.199742 -4.355021 8.133404 3.251493 -0.209163 -1.744206 -17.279366 -0.241604 -0.660395 14.368368 0.760416 4.525849 5.952076 0.000000 0.000000 0.000000 -8.382448 0.374458 -16.617267 5.293740 -2.212726 35.867602 -4.590468 -12.341923 7.214053 0.000000 0.000000 0.000000 -0.805411 -0.231777 6.349109 0.790656 -0.198796 -3.080119 4.891322 -0.927876 10.115930 1.130863 1.049691 -20.386625 0.000000 0.000000 0.000000 -2.468445 -11.171821 3.754179 -52.058492 -18.252220 1.033473 -76.631537 -57.714707 49.840705 0.000000 0.000000 0.000000 2.531489 15.638268 5.845317 49.285001 19.012190 2.546280 62.903360 50.658721 35.188405 0.000000 0.000000 0.000000 
0.191070 0.952351 0.209698 -5.175410 8.253562 3.143504 0.237348 -1.547487 -15.990713 -0.097953 -0.614325 13.005000 0.633404 4.368208 6.099856 0.000000 0.000000 0.000000 -7.425036 0.521274 -18.419801 4.498952 -1.781717 34.634687 -3.871922 -10.867350 7.695328 0.000000 0.000000 0.000000 -0.538729 -0.262836 6.562500 1.231638 -0.376455 -3.346069 4.241961 -1.202928 10.270445 2.127150 0.309325 -18.641480 0.000000 0.000000 0.000000 -1.608505 -10.081920 3.373184 -51.409640 -15.599290 -0.171829 -86.873862 -54.502193 54.864388 0.000000 0.000000 0.000000 2.685916 14.129026 5.278317 49.096164 15.331233 0.980545 71.617585 47.990650 38.568816 0.000000 0.000000 0.000000 
